/* XPM */
static char * kbc16_xpm[] = {
"16 16 187 2",
"  	c None",
". 	c #B47315",
"+ 	c #B6781C",
"@ 	c #BB862C",
"# 	c #BD9345",
"$ 	c #C17F15",
"% 	c #DBAC38",
"& 	c #EACC6A",
"* 	c #F4E386",
"= 	c #F4E8A2",
"- 	c #EFD88D",
"; 	c #EED373",
"> 	c #CDAB5D",
", 	c #D2951D",
"' 	c #DEB540",
") 	c #DCBF67",
"! 	c #E3C668",
"~ 	c #F4E49F",
"{ 	c #EEE1A7",
"] 	c #E9D897",
"^ 	c #EEE3B1",
"/ 	c #F9EFB6",
"( 	c #DFC274",
"_ 	c #D19B3D",
": 	c #E4CC79",
"< 	c #E0BD58",
"[ 	c #D8AC39",
"} 	c #EED27E",
"| 	c #F5E6BE",
"1 	c #F3E8CB",
"2 	c #F7E9B2",
"3 	c #E8DEA7",
"4 	c #EDE4B7",
"5 	c #EBDDAB",
"6 	c #D3B36F",
"7 	c #C58728",
"8 	c #E0C06E",
"9 	c #E1B958",
"0 	c #E1BB59",
"a 	c #F5E8AD",
"b 	c #D0A75D",
"c 	c #BD7810",
"d 	c #C68718",
"e 	c #D7B166",
"f 	c #F8F2DC",
"g 	c #E7D9A2",
"h 	c #E4D5A7",
"i 	c #E5CF92",
"j 	c #BC904A",
"k 	c #C58D30",
"l 	c #D9AD4B",
"m 	c #CF9722",
"n 	c #EFD481",
"o 	c #AD5B00",
"p 	c #CC8F27",
"q 	c #C58317",
"r 	c #BD7507",
"s 	c #C88715",
"t 	c #CA8D13",
"u 	c #F3EACF",
"v 	c #D9C48A",
"w 	c #E5D2A1",
"x 	c #D9BA72",
"y 	c #AB691A",
"z 	c #D29E36",
"A 	c #D3A03A",
"B 	c #D3A138",
"C 	c #BE8128",
"D 	c #EDDA93",
"E 	c #B06307",
"F 	c #DABA7F",
"G 	c #EDDEB4",
"H 	c #BC7D1F",
"I 	c #E8CD90",
"J 	c #D9B365",
"K 	c #E4CE94",
"L 	c #DDCB9B",
"M 	c #D8B565",
"N 	c #B78A49",
"O 	c #A06116",
"P 	c #D8A137",
"Q 	c #CA9530",
"R 	c #D1A345",
"S 	c #803C00",
"T 	c #E5C775",
"U 	c #B56A13",
"V 	c #B76F14",
"W 	c #E6CF8F",
"X 	c #C98922",
"Y 	c #DCBE7B",
"Z 	c #C48414",
"` 	c #E5D8AA",
" .	c #D1BB89",
"..	c #D5B668",
"+.	c #AA742C",
"@.	c #975913",
"#.	c #D19A32",
"$.	c #C29238",
"%.	c #CF9E41",
"&.	c #6F3000",
"*.	c #D9B561",
"=.	c #BB9145",
"-.	c #CA8D34",
";.	c #E2C779",
">.	c #C58928",
",.	c #EBDA93",
"'.	c #BA7108",
").	c #EBD88A",
"!.	c #C9AB69",
"~.	c #C5A14B",
"{.	c #A56B23",
"].	c #8B4D10",
"^.	c #BE862D",
"/.	c #C79236",
"(.	c #C68D2A",
"_.	c #90581B",
":.	c #E9C462",
"<.	c #7C3700",
"[.	c #DCC06F",
"}.	c #F0DC87",
"|.	c #B57016",
"1.	c #E8D789",
"2.	c #D9AB4B",
"3.	c #CFB160",
"4.	c #C5A252",
"5.	c #B88931",
"6.	c #AC772B",
"7.	c #93581A",
"8.	c #C08C3D",
"9.	c #BB7E21",
"0.	c #CD9B37",
"a.	c #5A1C00",
"b.	c #7E4610",
"c.	c #A26929",
"d.	c #A9681D",
"e.	c #B97519",
"f.	c #B56502",
"g.	c #EEDC86",
"h.	c #C9A64F",
"i.	c #BC8E37",
"j.	c #7F4511",
"k.	c #BE8A35",
"l.	c #C4943D",
"m.	c #C69235",
"n.	c #D0A144",
"o.	c #A2702E",
"p.	c #79400A",
"q.	c #85490A",
"r.	c #CA933A",
"s.	c #E9D27B",
"t.	c #D2B458",
"u.	c #D0B051",
"v.	c #CEAF56",
"w.	c #B78027",
"x.	c #A3671A",
"y.	c #CB9533",
"z.	c #BF903B",
"A.	c #BE8B39",
"B.	c #C59847",
"C.	c #D2A957",
"D.	c #E0BB65",
"E.	c #D2B45E",
"F.	c #D4B051",
"G.	c #D4B456",
"H.	c #D2BB66",
"I.	c #BE8B2B",
"J.	c #A1651E",
"K.	c #B97C19",
"L.	c #BD8C37",
"M.	c #C9A24F",
"N.	c #D1AD56",
"O.	c #D1AE55",
"P.	c #D6B65C",
"Q.	c #C9A445",
"R.	c #C2902F",
"S.	c #9A662E",
"T.	c #A2661C",
"U.	c #B57D21",
"V.	c #C69227",
"W.	c #C4952F",
"X.	c #BC8D31",
"Y.	c #B98C2C",
"Z.	c #AF741A",
"`.	c #92541C",
" +	c #83460F",
".+	c #7E3F07",
"++	c #94560B",
"            . + @ #             ",
"        $ % & * = - ; >         ",
"      , ' ) ! ~ { ] ^ / (       ",
"    _ : < [ } | 1 2 3 4 5 6     ",
"  7 8 9 0 a b c d e f g h i j   ",
"  k l m n o p q r s t u v w x   ",
"y z A B C D E F G H I J K L M N ",
"O P Q R S T U V W X Y Z `  ...+.",
"@.#.$.%.&.*.=.-.;.>.,.'.).!.~.{.",
"].^./.(._.:.<.[.}.|.1.2.3.4.5.6.",
"  7.8.9.0.a.b.c.d.e.f.g.h.h.i.  ",
"  j.k.l.m.n.o.p.q.r.s.t.u.v.w.  ",
"    x.y.z.A.B.C.D.E.F.G.H.I.    ",
"      J.K.k.L.M.N.O.P.Q.R.      ",
"        S.T.U.V.W.X.Y.Z.        ",
"            `. +.+++            "};
