/* XPM */
static char * kbc32_xpm[] = {
"32 32 739 2",
"  	c None",
". 	c #A47433",
"+ 	c #A07337",
"@ 	c #AE6B0F",
"# 	c #C1821A",
"$ 	c #C98E22",
"% 	c #AB6509",
"& 	c #C38117",
"* 	c #C38821",
"= 	c #C9912B",
"- 	c #D29C31",
"; 	c #B67F26",
"> 	c #D3AF58",
", 	c #C49749",
"' 	c #9F7C55",
") 	c #BA7611",
"! 	c #C68415",
"~ 	c #CB8D1C",
"{ 	c #D29B27",
"] 	c #DCAA32",
"^ 	c #FEE179",
"/ 	c #F7E282",
"( 	c #F2DE7E",
"_ 	c #FBEEA4",
": 	c #F6DF82",
"< 	c #F8DD7D",
"[ 	c #E6BF5A",
"} 	c #E1C46D",
"| 	c #DBBD63",
"1 	c #D2B05B",
"2 	c #AB834D",
"3 	c #C78113",
"4 	c #BF7A12",
"5 	c #CF9522",
"6 	c #E7C14E",
"7 	c #E3BF52",
"8 	c #EDCF6C",
"9 	c #D2C17C",
"0 	c #E8D67F",
"a 	c #F3E18D",
"b 	c #E9DFA7",
"c 	c #ECDD94",
"d 	c #E4CC79",
"e 	c #F1EAD3",
"f 	c #F5DA7B",
"g 	c #FAE689",
"h 	c #E3CB78",
"i 	c #D5B463",
"j 	c #CAA756",
"k 	c #C88515",
"l 	c #CB8F23",
"m 	c #E0AB25",
"n 	c #D9A522",
"o 	c #D4C57F",
"p 	c #E7BA42",
"q 	c #D7BC64",
"r 	c #EFD47A",
"s 	c #EDD988",
"t 	c #F4E6A6",
"u 	c #ECE1AC",
"v 	c #E9DA98",
"w 	c #F0DE9B",
"x 	c #EAD9A1",
"y 	c #EFDC91",
"z 	c #F2E6B0",
"A 	c #F6E9B3",
"B 	c #FFF09E",
"C 	c #D9BF7C",
"D 	c #CEA959",
"E 	c #C88519",
"F 	c #D59B25",
"G 	c #E3B433",
"H 	c #D4C888",
"I 	c #E2B030",
"J 	c #DAB44D",
"K 	c #DDC374",
"L 	c #DEBC57",
"M 	c #EACE73",
"N 	c #F3E2A1",
"O 	c #FCEDA8",
"P 	c #FBEEAD",
"Q 	c #ECDFAE",
"R 	c #EAD895",
"S 	c #E2D498",
"T 	c #EFE7BF",
"U 	c #E9DFB2",
"V 	c #F7E8A3",
"W 	c #EAE5CB",
"X 	c #F5E08D",
"Y 	c #DEC27C",
"Z 	c #D0AD60",
"` 	c #C58628",
" .	c #D1962F",
"..	c #E8C765",
"+.	c #DDC879",
"@.	c #DFB647",
"#.	c #D8B95A",
"$.	c #E1BB52",
"%.	c #D9B34B",
"&.	c #E0BB54",
"*.	c #E2C46A",
"=.	c #F8DF88",
"-.	c #FEFFF6",
";.	c #FFFFFC",
">.	c #F8E39A",
",.	c #E9D89C",
"'.	c #EEE1A2",
").	c #E7DDAD",
"!.	c #E7DEAF",
"~.	c #EAE5C2",
"{.	c #F9EAB1",
"].	c #F2E4B3",
"^.	c #E0CE93",
"/.	c #D8BA75",
"(.	c #C49D54",
"_.	c #C68B2E",
":.	c #D6A34A",
"<.	c #E0BD65",
"[.	c #E0C982",
"}.	c #E8C25D",
"|.	c #E7C96C",
"1.	c #E1BD58",
"2.	c #D9B44E",
"3.	c #D8A524",
"4.	c #F1D179",
"5.	c #FCF0C0",
"6.	c #FFFFFB",
"7.	c #D1A24D",
"8.	c #CAA863",
"9.	c #FFFFFF",
"0.	c #FDF5D3",
"a.	c #FEEFB4",
"b.	c #EDE09A",
"c.	c #EEE6B6",
"d.	c #EBE2B5",
"e.	c #E6DBB0",
"f.	c #E7DBAD",
"g.	c #F0DDA7",
"h.	c #E1CB89",
"i.	c #CFAD6F",
"j.	c #B7893C",
"k.	c #C88F2B",
"l.	c #C3842B",
"m.	c #E3BD63",
"n.	c #EBD28C",
"o.	c #E1BA5C",
"p.	c #E5C165",
"q.	c #E2BE5D",
"r.	c #E2C061",
"s.	c #EAC256",
"t.	c #FFFBCE",
"u.	c #ECE7CB",
"v.	c #CBA56D",
"w.	c #BD8127",
"x.	c #C7861B",
"y.	c #CE8F1F",
"z.	c #C3933A",
"A.	c #D5BA83",
"B.	c #F3F3EB",
"C.	c #FFFEEE",
"D.	c #FEEFAC",
"E.	c #E1D7AB",
"F.	c #ECDEAB",
"G.	c #E3D6A9",
"H.	c #E4D4A4",
"I.	c #EBDBAE",
"J.	c #E1C373",
"K.	c #CAA96D",
"L.	c #975A12",
"M.	c #B77820",
"N.	c #D69F38",
"O.	c #D0AE5C",
"P.	c #DCB250",
"Q.	c #E0BB5C",
"R.	c #DCAF45",
"S.	c #DCB14C",
"T.	c #EDCD71",
"U.	c #FFFFD8",
"V.	c #D0AD67",
"W.	c #CF9321",
"X.	c #C5861F",
"Y.	c #BE7916",
"Z.	c #C27E16",
"`.	c #C68318",
" +	c #C98A1B",
".+	c #CE911F",
"++	c #CA8D15",
"@+	c #D0B98A",
"#+	c #FAE9A6",
"$+	c #DED2A4",
"%+	c #E4D3A1",
"&+	c #E5D6AB",
"*+	c #DBC386",
"=+	c #E6D29C",
"-+	c #CDA75E",
";+	c #BE9246",
">+	c #CC9029",
",+	c #AF7023",
"'+	c #D4A138",
")+	c #DBB154",
"!+	c #D7A943",
"~+	c #DBAA3E",
"{+	c #D4A435",
"]+	c #DDAA37",
"^+	c #FFFBBC",
"/+	c #BA7E2C",
"(+	c #B9700F",
"_+	c #CF932B",
":+	c #D29B30",
"<+	c #C5851F",
"[+	c #BE7A16",
"}+	c #C58317",
"|+	c #C88819",
"1+	c #CC8E1B",
"2+	c #D5981D",
"3+	c #C4A259",
"4+	c #EDD283",
"5+	c #E2CF99",
"6+	c #DBCA98",
"7+	c #E7D3A0",
"8+	c #DFD1AB",
"9+	c #E3C46E",
"0+	c #C8A567",
"a+	c #B0721B",
"b+	c #C3882E",
"c+	c #D3A037",
"d+	c #D39F35",
"e+	c #DCB357",
"f+	c #CC9525",
"g+	c #CD8E13",
"h+	c #FBE18C",
"i+	c #CA9643",
"j+	c #B56806",
"k+	c #B46706",
"l+	c #B76C09",
"m+	c #CE942B",
"n+	c #D29A2C",
"o+	c #C38218",
"p+	c #BB750E",
"q+	c #BF7A0E",
"r+	c #C78512",
"s+	c #CB8D18",
"t+	c #D6971C",
"u+	c #D1BB8D",
"v+	c #FCF8E3",
"w+	c #D8BD72",
"x+	c #DDCA98",
"y+	c #E7D7B0",
"z+	c #E2C67A",
"A+	c #DFC276",
"B+	c #CFAC6B",
"C+	c #AA7525",
"D+	c #AF6D1C",
"E+	c #C69232",
"F+	c #D39F37",
"G+	c #D6A84A",
"H+	c #CE982D",
"I+	c #CB9326",
"J+	c #D9A73D",
"K+	c #ECCD77",
"L+	c #AE6102",
"M+	c #D0AE64",
"N+	c #F3E09C",
"O+	c #BA8036",
"P+	c #B96F0B",
"Q+	c #C1974D",
"R+	c #FCF3D1",
"S+	c #D4BA8C",
"T+	c #F6EBC6",
"U+	c #C58826",
"V+	c #C4A16B",
"W+	c #EDD59C",
"X+	c #CB8B16",
"Y+	c #C8890E",
"Z+	c #F5F7F1",
"`+	c #E8CE8B",
" @	c #DDC68B",
".@	c #D7C595",
"+@	c #E5D4A5",
"@@	c #DFC27A",
"#@	c #C69D4C",
"$@	c #C29851",
"%@	c #9D5F19",
"&@	c #D29E35",
"*@	c #D39E35",
"=@	c #D19F3A",
"-@	c #D49D32",
";@	c #C98F23",
">@	c #E2BB5B",
",@	c #B98435",
"'@	c #AC650B",
")@	c #CB9A45",
"!@	c #FFF2AC",
"~@	c #AD5C00",
"{@	c #B76D0D",
"]@	c #C68D3B",
"^@	c #D3AC64",
"/@	c #D7A749",
"(@	c #FFFFEA",
"_@	c #C5892F",
":@	c #BE7301",
"<@	c #F5F4D7",
"[@	c #DFB973",
"}@	c #CD8F1B",
"|@	c #DBC086",
"1@	c #EFE2B8",
"2@	c #D9C48B",
"3@	c #DBC48D",
"4@	c #DDC997",
"5@	c #DCBF79",
"6@	c #DAB761",
"7@	c #B38749",
"8@	c #8C4E15",
"9@	c #D6A136",
"0@	c #D39B33",
"a@	c #CD9B3A",
"b@	c #C38E29",
"c@	c #D39829",
"d@	c #F3D16E",
"e@	c #8A4C0F",
"f@	c #955006",
"g@	c #C3933E",
"h@	c #FFEB9D",
"i@	c #AE5C00",
"j@	c #B76B0A",
"k@	c #C79854",
"l@	c #B96F0C",
"m@	c #CF9D42",
"n@	c #CB9236",
"o@	c #BE740A",
"p@	c #F2EBBD",
"q@	c #DDB76D",
"r@	c #C8891A",
"s@	c #C1923B",
"t@	c #FFFFE6",
"u@	c #D1B36D",
"v@	c #D6C49A",
"w@	c #D4BE88",
"x@	c #D7B76E",
"y@	c #D9BB6C",
"z@	c #B8893F",
"A@	c #C5851A",
"B@	c #985C1A",
"C@	c #D19934",
"D@	c #D19C37",
"E@	c #C89636",
"F@	c #D69C2F",
"G@	c #E4BB58",
"H@	c #854E12",
"I@	c #7D3D03",
"J@	c #854405",
"K@	c #B58537",
"L@	c #FCE48E",
"M@	c #A85300",
"N@	c #DBB76D",
"O@	c #B16100",
"P@	c #B76C0C",
"Q@	c #BD802B",
"R@	c #FFFFC6",
"S@	c #D7A542",
"T@	c #D2A147",
"U@	c #DCCA91",
"V@	c #C07C16",
"W@	c #CD8C17",
"X@	c #BC9A55",
"Y@	c #FFFFD6",
"Z@	c #D0B36E",
"`@	c #D0BC8E",
" #	c #CFAF65",
".#	c #D0B05F",
"+#	c #C69A49",
"@#	c #C0811A",
"##	c #955918",
"$#	c #CF9732",
"%#	c #C79330",
"&#	c #CC9F47",
"*#	c #B98220",
"=#	c #E9BF59",
"-#	c #915922",
";#	c #763802",
">#	c #7C3D04",
",#	c #AC7B33",
"'#	c #F8DC83",
")#	c #A4691D",
"!#	c #FFF7A0",
"~#	c #C68831",
"{#	c #B66D0D",
"]#	c #BC7E28",
"^#	c #FFFFBA",
"/#	c #D29E3C",
"(#	c #C59B45",
"_#	c #ECE1A3",
":#	c #D2A450",
"<#	c #C58216",
"[#	c #DBAD4B",
"}#	c #FEFAC2",
"|#	c #C5A55C",
"1#	c #D0B780",
"2#	c #C8A455",
"3#	c #C9A753",
"4#	c #BF913F",
"5#	c #824411",
"6#	c #CD9731",
"7#	c #CD9631",
"8#	c #C4943A",
"9#	c #C8973C",
"0#	c #B57C19",
"a#	c #F0C55A",
"b#	c #7B410F",
"c#	c #A6752F",
"d#	c #F6D778",
"e#	c #8C3F00",
"f#	c #C7A557",
"g#	c #FCE593",
"h#	c #B76E12",
"i#	c #BC7D25",
"j#	c #FFFFB2",
"k#	c #C17F24",
"l#	c #D9B75F",
"m#	c #FFFFBB",
"n#	c #B66B03",
"o#	c #C89031",
"p#	c #FFFCB4",
"q#	c #BF9A48",
"r#	c #CAAF6E",
"s#	c #C7A457",
"t#	c #BE953F",
"u#	c #C5A048",
"v#	c #AC762B",
"w#	c #905315",
"x#	c #BE862C",
"y#	c #C89131",
"z#	c #C5943A",
"A#	c #C78E2B",
"B#	c #CB8E28",
"C#	c #CC9C3B",
"D#	c #A16D29",
"E#	c #743702",
"F#	c #A2702B",
"G#	c #F3D170",
"H#	c #773100",
"I#	c #8D4600",
"J#	c #EAD17A",
"K#	c #EFD281",
"L#	c #B77418",
"M#	c #FFFAA8",
"N#	c #BF7C21",
"O#	c #B8700F",
"P#	c #D7B057",
"Q#	c #FFFCB3",
"R#	c #BF790E",
"S#	c #DCB863",
"T#	c #E6D180",
"U#	c #C8A95D",
"V#	c #C29D4A",
"W#	c #C29F52",
"X#	c #BD923B",
"Y#	c #BB8E34",
"Z#	c #AA752C",
"`#	c #85470E",
" $	c #A86F23",
".$	c #BF862F",
"+$	c #C99944",
"@$	c #C48B2E",
"#$	c #BF8325",
"$$	c #C08523",
"%$	c #D8AA4C",
"&$	c #6A2D00",
"*$	c #C79B45",
"=$	c #F6D56C",
"-$	c #966227",
";$	c #844303",
">$	c #945712",
",$	c #DEC774",
"'$	c #EAD482",
")$	c #FFF4A2",
"!$	c #BA781D",
"~$	c #BE8C3D",
"{$	c #DBC985",
"]$	c #D5AD51",
"^$	c #CE9428",
"/$	c #FEF4A4",
"($	c #CFAD56",
"_$	c #C4A251",
":$	c #C3A04F",
"<$	c #CCAD5C",
"[$	c #BC9138",
"}$	c #AF7A28",
"|$	c #B17D2C",
"1$	c #7E4510",
"2$	c #915517",
"3$	c #B07529",
"4$	c #B77D2A",
"5$	c #CFA353",
"6$	c #B57C23",
"7$	c #BB7510",
"8$	c #D7A63E",
"9$	c #9F6B2B",
"0$	c #5E2100",
"a$	c #5F2200",
"b$	c #692A00",
"c$	c #773601",
"d$	c #7C3900",
"e$	c #924500",
"f$	c #9A4C00",
"g$	c #A15000",
"h$	c #B36504",
"i$	c #AC5D00",
"j$	c #BA6904",
"k$	c #B86E0C",
"l$	c #E5C46C",
"m$	c #F2E494",
"n$	c #C69F45",
"o$	c #CAA753",
"p$	c #D5BD6D",
"q$	c #B98B30",
"r$	c #BF953B",
"s$	c #B48332",
"t$	c #A56915",
"u$	c #854E15",
"v$	c #763B0C",
"w$	c #9D6220",
"x$	c #B47A2B",
"y$	c #BF8E3F",
"z$	c #CB9334",
"A$	c #B8842B",
"B$	c #B47813",
"C$	c #E6B74B",
"D$	c #884F1A",
"E$	c #733601",
"F$	c #723300",
"G$	c #AA8741",
"H$	c #C49B55",
"I$	c #B48C50",
"J$	c #B89050",
"K$	c #BF9243",
"L$	c #CAA154",
"M$	c #B66A09",
"N$	c #B56A09",
"O$	c #CC9740",
"P$	c #FFFCAD",
"Q$	c #C9A03B",
"R$	c #D0B25E",
"S$	c #CBAB53",
"T$	c #D1B35F",
"U$	c #C39A3E",
"V$	c #C3993D",
"W$	c #B37D27",
"X$	c #753A0C",
"Y$	c #8E5216",
"Z$	c #B17D31",
"`$	c #BC8730",
" %	c #C59A49",
".%	c #C58B27",
"+%	c #CA9433",
"@%	c #B68123",
"#%	c #E8BB52",
"$%	c #A57230",
"%%	c #672800",
"&%	c #966725",
"*%	c #7E4912",
"=%	c #926121",
"-%	c #8E5716",
";%	c #975F1A",
">%	c #B2751D",
",%	c #AF6203",
"'%	c #DBAF59",
")%	c #FFF9A9",
"!%	c #D1B151",
"~%	c #D6BA62",
"{%	c #CEAA49",
"]%	c #D7BD67",
"^%	c #CAA950",
"/%	c #CFAA51",
"(%	c #BD8C35",
"_%	c #B37B20",
":%	c #8C5520",
"<%	c #804611",
"[%	c #AC6F19",
"}%	c #D0A54F",
"|%	c #C9973C",
"1%	c #C09543",
"2%	c #CE9C3D",
"3%	c #CC9B43",
"4%	c #B88229",
"5%	c #D8AD4E",
"6%	c #E1B75A",
"7%	c #AC7B37",
"8%	c #834A14",
"9%	c #7A3D06",
"0%	c #7D3F04",
"a%	c #995F1D",
"b%	c #C89949",
"c%	c #FBE189",
"d%	c #EBD681",
"e%	c #C9A03A",
"f%	c #D9BE67",
"g%	c #D2B251",
"h%	c #D6BC61",
"i%	c #C8A13C",
"j%	c #DBC675",
"k%	c #BE9432",
"l%	c #C29235",
"m%	c #A35E0C",
"n%	c #8C5727",
"o%	c #9C5F19",
"p%	c #C5871C",
"q%	c #CE9C3E",
"r%	c #C38D2D",
"s%	c #BE9343",
"t%	c #C9963C",
"u%	c #BE9447",
"v%	c #BF852D",
"w%	c #BF8D3A",
"x%	c #CDA44F",
"y%	c #F4CF70",
"z%	c #956229",
"A%	c #AB7A37",
"B%	c #F6D87E",
"C%	c #DEBF68",
"D%	c #CEB052",
"E%	c #D3AC46",
"F%	c #D0B055",
"G%	c #D0AC49",
"H%	c #D7BE65",
"I%	c #D2B04D",
"J%	c #D6C06D",
"K%	c #C5A03D",
"L%	c #BD892F",
"M%	c #B3771B",
"N%	c #905B29",
"O%	c #A66A1C",
"P%	c #BD811B",
"Q%	c #CE9A3C",
"R%	c #B98020",
"S%	c #C1984A",
"T%	c #C7943E",
"U%	c #B78739",
"V%	c #C09344",
"W%	c #CA9E4B",
"X%	c #BB913C",
"Y%	c #F0CB75",
"Z%	c #F1D07B",
"`%	c #D2A94A",
" &	c #D1B15F",
".&	c #D3B45F",
"+&	c #DBB95C",
"@&	c #D2B156",
"#&	c #D2B55C",
"$&	c #D5B04E",
"%&	c #D1C076",
"&&	c #C7A749",
"*&	c #B98024",
"=&	c #C1912F",
"-&	c #8A5220",
";&	c #A5691E",
">&	c #BA790F",
",&	c #BF882C",
"'&	c #B97A1A",
")&	c #B98836",
"!&	c #CAA256",
"~&	c #BE8C39",
"{&	c #C79841",
"]&	c #D1AD5D",
"^&	c #C39A44",
"/&	c #D0A749",
"(&	c #DBB966",
"_&	c #D5B258",
":&	c #D3B25B",
"<&	c #D4BC71",
"[&	c #DABB5E",
"}&	c #CC9F33",
"|&	c #C5A853",
"1&	c #D1AD47",
"2&	c #BA8126",
"3&	c #C79A37",
"4&	c #925D2F",
"5&	c #9E6325",
"6&	c #AF6903",
"7&	c #B78329",
"8&	c #BC842A",
"9&	c #B47417",
"0&	c #BF8C36",
"a&	c #B68833",
"b&	c #C2943A",
"c&	c #CFAA57",
"d&	c #D5B059",
"e&	c #C5A04B",
"f&	c #C9A44C",
"g&	c #D3B057",
"h&	c #D1AA47",
"i&	c #D2AF4E",
"j&	c #CAB05F",
"k&	c #CA982E",
"l&	c #BD8829",
"m&	c #C19230",
"n&	c #936339",
"o&	c #905728",
"p&	c #AE7224",
"q&	c #AF6805",
"r&	c #B2842F",
"s&	c #C99231",
"t&	c #C8932D",
"u&	c #C2912F",
"v&	c #C6993B",
"w&	c #CC9E3A",
"x&	c #C79F42",
"y&	c #D2A641",
"z&	c #C5A446",
"A&	c #C09934",
"B&	c #B88222",
"C&	c #C18C2B",
"D&	c #AB7019",
"E&	c #B08C56",
"F&	c #8A541F",
"G&	c #8E5529",
"H&	c #A06119",
"I&	c #A8701E",
"J&	c #A6690D",
"K&	c #B67E16",
"L&	c #C5932C",
"M&	c #BB8A27",
"N&	c #B68521",
"O&	c #AB7A24",
"P&	c #A8741C",
"Q&	c #AF791C",
"R&	c #AE7318",
"S&	c #AA6F18",
"T&	c #8E4A03",
"U&	c #966326",
"V&	c #884913",
"W&	c #A26825",
"X&	c #894D13",
"Y&	c #7B3D0A",
"Z&	c #7D3F09",
"`&	c #87480B",
" *	c #9C5F0F",
".*	c #94570C",
"+*	c #91520A",
"                              . +                               ",
"                    @ # $ % & * = - ; > , '                     ",
"                ) ! ~ { ] ^ / ( _ : < [ } | 1 2                 ",
"              3 4 5 6 7 8 9 0 a b c d e f g h i j               ",
"            k l m n o p q r s t u v w x y z A B C D             ",
"          E F G H I J K L M N O P Q R S T U V W X Y Z           ",
"        `  ...+.@.#.$.%.&.*.=.-.;.>.,.'.).!.~.{.].^./.(.        ",
"      _.:.<.[.}.|.1.2.3.4.5.6.7.8.9.0.a.b.c.d.e.f.g.h.i.j.      ",
"    k.l.m.n.o.p.q.r.s.t.u.v.w.x.y.z.A.B.C.D.E.F.G.H.I.J.K.L.    ",
"    M.N.O.P.Q.R.S.T.U.V.W.X.Y.Z.`. +.+++@+9.#+$+%+&+*+=+-+;+    ",
"  >+,+'+)+!+~+{+]+^+/+(+_+:+<+[+Z.}+|+1+2+3+9.4+5+6+7+8+9+0+    ",
"  a+b+c+d+e+f+g+h+i+j+k+l+m+n+o+p+q+}+r+s+t+u+v+w+x+y+z+A+B+C+  ",
"  D+E+F+G+H+I+J+K+L+M+N+O+P+Q+R+S+T+U+V+W+X+Y+Z+`+ @.@+@@@#@$@  ",
"  %@&@*@=@-@;@>@,@'@)@!@~@{@]@^@/@(@_@:@<@[@}@|@1@2@3@4@5@6@7@  ",
"  8@9@0@a@b@c@d@e@f@g@h@i@j@k@l@m@U.n@o@p@q@r@s@t@u@v@w@x@y@z@  ",
"A@B@C@D@E@F@G@H@I@J@K@L@M@N@O@P@Q@R@S@T@U@V@}+W@X@Y@Z@`@ #.#+#  ",
"@###$#%#&#*#=#-#;#>#,#'#)#!#~#{#]#^#/#(#_#:#Z.<#[#}#|#1#2#3#4#  ",
"  5#6#7#8#9#0#a#b#;#c#d#e#f#g#h#i#j#k#m+l#m#n#o#p#q#r#s#t#u#v#  ",
"  w#x#y#z#A#B#C#D#E#F#G#H#I#J#K#L#M#N#O#P#Q#R#S#T#U#V#W#X#Y#Z#  ",
"  `# $.$+$@$#$$$%$&$*$=$-$;$>$,$'$)$!$~${$]$^$/$($_$:$<$[$}$|$  ",
"  1$2$3$4$5$6$7$8$9$0$a$b$c$d$e$f$g$h$i$j$k$l$m$n$o$p$q$r$s$t$  ",
"  u$v$w$x$y$z$A$B$C$D$E$F$G$H$I$J$K$L$M$N$O$P$Q$R$S$T$U$V$W$    ",
"    X$Y$Z$`$ %.%+%@%#%$%%%&%*%=%-%;%>%,%'%)%!%~%{%]%^%/%(%_%    ",
"    :%<%[%}%|%1%2%3%4%5%6%7%8%9%0%a%b%c%d%e%f%g%h%i%j%k%l%m%    ",
"      n%o%p%q%r%s%t%u%v%w%x%y%z%A%B%C%D%E%F%G%H%I%J%K%L%M%      ",
"        N%O%P%Q%R%S%T%U%V%W%X%Y%Z%`% &.&+&@&#&$&%&&&*&=&        ",
"          -&;&>&,&'&)&!&~&{&]&^&/&(&_&:&<&[&}&|&1&2&3&          ",
"            4&5&6&7&8&9&0&a&b&c&d&e&f&g&h&i&j&k&l&m&            ",
"              n&o&p&q&r&A$s&t&u&v&w&x&y&z&A&B&C&D&              ",
"                E&F&G&H&I&J&K&L&M&N&O&P&Q&R&S&T&                ",
"                      U&V&W&X&Y&Z&`& *.*+*                      ",
"                                                                "};
